<?xml version="1.0" standalone="no"?>
<!DOCTYPE svg PUBLIC "-//W3C//DTD SVG 20010904//EN"
 "http://www.w3.org/TR/2001/REC-SVG-20010904/DTD/svg10.dtd">
<svg version="1.0" xmlns="http://www.w3.org/2000/svg"
 width="192.000000pt" height="192.000000pt" viewBox="0 0 192.000000 192.000000"
 preserveAspectRatio="xMidYMid meet">
<metadata>
Created by potrace 1.14, written by Peter Selinger 2001-2017
</metadata>
<g transform="translate(0.000000,192.000000) scale(0.100000,-0.100000)"
fill="#000000" stroke="none">
<path d="M535 1889 c-22 -5 -53 -12 -70 -15 -95 -19 -282 -102 -323 -144 l-25
-25 -2 -495 -1 -495 23 -42 c13 -23 42 -55 66 -71 69 -48 219 -112 297 -127
12 -2 25 -7 28 -9 2 -3 5 -45 5 -93 0 -79 3 -92 28 -129 15 -23 40 -49 55 -59
29 -19 145 -82 154 -83 5 -1 29 -8 70 -22 64 -22 121 -34 215 -45 28 -4 66 -8
85 -11 19 -3 40 -5 45 -5 20 1 111 11 150 16 22 4 58 9 80 12 22 3 48 10 58
15 10 5 21 7 24 4 3 -3 18 1 34 9 15 8 36 17 46 19 30 5 125 53 178 88 l50 33
1 186 c1 186 1 187 -25 230 l-27 42 -184 1 -185 1 -2 80 c-2 96 2 115 20 91
11 -15 34 -16 207 -14 l195 3 2 75 c1 41 -3 80 -8 86 -6 8 -6 14 -1 18 12 7
11 216 0 216 -4 0 -8 7 -8 15 0 8 -4 15 -8 15 -5 0 -15 11 -22 25 -7 14 -34
37 -59 52 -25 14 -49 31 -53 37 -4 6 -8 8 -8 4 0 -4 -15 1 -32 12 -18 11 -41
20 -50 20 -10 0 -18 4 -18 8 0 6 -68 29 -110 37 -45 9 -47 13 -47 105 0 80 -3
94 -26 127 -28 40 -38 48 -125 96 -59 32 -189 82 -237 90 -17 3 -41 9 -55 13
-37 11 -358 13 -405 3z m329 -430 c-3 -5 -13 -9 -23 -9 -36 0 -225 -84 -263
-118 -21 -18 -20 -20 -23 46 -2 61 4 67 87 80 73 12 229 12 222 1z m500 -910
c1 -55 -5 -65 -49 -74 -42 -9 -270 -17 -262 -9 4 4 33 16 64 26 72 24 202 86
221 105 20 20 26 10 26 -48z"/>
</g>
</svg>
